<svg xmlns="http://www.w3.org/2000/svg" width="48" height="48" viewBox="0 0 48 48" fill="none">
  <rect width="48" height="48" rx="8" fill="#E5F2FF"/>
  <rect x="6" y="10" width="36" height="28" rx="2" stroke="#0066CC" stroke-width="2"/>
  
  <!-- Grid pattern -->
  <path d="M12 10V38M18 10V38M24 10V38M30 10V38M36 10V38" stroke="#0066CC" stroke-width="0.5" stroke-dasharray="2 2"/>
  <path d="M6 16H42M6 22H42M6 28H42M6 34H42" stroke="#0066CC" stroke-width="0.5" stroke-dasharray="2 2"/>
  
  <!-- First node -->
  <rect x="10" y="14" width="10" height="8" rx="2" fill="#0066CC" stroke="#0066CC" stroke-width="1"/>
  
  <!-- Second node -->
  <rect x="28" y="14" width="10" height="8" rx="2" fill="#0066CC" stroke="#0066CC" stroke-width="1"/>
  
  <!-- Third node -->
  <rect x="18" y="28" width="12" height="8" rx="2" fill="#0066CC" stroke="#0066CC" stroke-width="1"/>
  
  <!-- Connection arrows -->
  <path d="M20 18L28 18" stroke="#0066CC" stroke-width="1.5" stroke-linecap="round"/>
  <path d="M27 16L29 18L27 20" stroke="#0066CC" stroke-width="1.5" stroke-linecap="round" stroke-linejoin="round"/>
  
  <path d="M28 22L24 28" stroke="#0066CC" stroke-width="1.5" stroke-linecap="round"/>
  <path d="M25 27L24 29L23 27" stroke="#0066CC" stroke-width="1.5" stroke-linecap="round" stroke-linejoin="round"/>
  
  <path d="M18 28L15 22" stroke="#0066CC" stroke-width="1.5" stroke-linecap="round"/>
  <path d="M14 23L15 21L16 23" stroke="#0066CC" stroke-width="1.5" stroke-linecap="round" stroke-linejoin="round"/>
  
  <!-- Edit cursor -->
  <circle cx="36" cy="34" r="3" fill="#FF6600"/>
</svg> 